<?xml version='1.0' encoding='utf-8'?>
<svg xmlns="http://www.w3.org/2000/svg" width="297mm" height="210mm" version="1.1" shape-rendering="geometricPrecision" text-rendering="geometricPrecision" image-rendering="optimizeQuality" fill-rule="evenodd" clip-rule="evenodd" viewBox="0 0 29700 21000"> <g id="Livello_x0020_1"> <metadata id="CorelCorpID_0Corel-Layer"/> <polygon fill="black" fill-rule="nonzero" points="79.84,0 -0,79.84 -0,0 "/> <polygon fill="black" fill-rule="nonzero" points="-0,1122.39 1122.39,0 1222.15,0 -0,1222.15 "/> <polygon fill="black" fill-rule="nonzero" points="-0,2264.69 2264.69,0 2364.45,0 -0,2364.45 "/> <polygon fill="black" fill-rule="nonzero" points="-0,3407.01 3407.01,0 3506.77,0 -0,3506.77 "/> <polygon fill="black" fill-rule="nonzero" points="-0,4549.31 4549.31,0 4649.07,0 -0,4649.07 "/> <polygon fill="black" fill-rule="nonzero" points="-0,5691.62 5691.62,0 5791.38,0 -0,5791.38 "/> <polygon fill="black" fill-rule="nonzero" points="-0,6833.93 6833.93,0 6933.69,0 -0,6933.69 "/> <polygon fill="black" fill-rule="nonzero" points="-0,7976.23 7976.23,0 8075.99,0 -0,8075.99 "/> <polygon fill="black" fill-rule="nonzero" points="-0,9118.55 9118.55,0 9218.31,0 -0,9218.31 "/> <polygon fill="black" fill-rule="nonzero" points="-0,10260.85 10260.85,0 10360.61,0 -0,10360.61 "/> <polygon fill="black" fill-rule="nonzero" points="-0,11403.16 11403.16,0 11502.92,0 -0,11502.92 "/> <polygon fill="black" fill-rule="nonzero" points="-0,12545.47 12545.47,0 12645.23,0 -0,12645.23 "/> <polygon fill="black" fill-rule="nonzero" points="-0,13687.77 13687.77,0 13787.53,0 -0,13787.53 "/> <polygon fill="black" fill-rule="nonzero" points="-0,14830.08 14830.08,0 14929.84,0 -0,14929.84 "/> <polygon fill="black" fill-rule="nonzero" points="-0,15972.39 15972.39,0 16072.15,0 -0,16072.15 "/> <polygon fill="black" fill-rule="nonzero" points="-0,17114.7 17114.7,0 17214.46,0 -0,17214.46 "/> <polygon fill="black" fill-rule="nonzero" points="-0,18257.01 18257.01,0 18356.77,0 -0,18356.77 "/> <polygon fill="black" fill-rule="nonzero" points="-0,19399.31 19399.31,0 19499.07,0 -0,19499.07 "/> <polygon fill="black" fill-rule="nonzero" points="-0,20541.62 20541.62,0 20641.38,0 -0,20641.38 "/> <polygon fill="black" fill-rule="nonzero" points="683.93,21000 21683.93,0 21783.69,0 783.69,21000 "/> <polygon fill="black" fill-rule="nonzero" points="1826.23,21000 22826.24,0 22926,0 1925.99,21000 "/> <polygon fill="black" fill-rule="nonzero" points="2968.54,21000 23968.55,0 24068.31,0 3068.3,21000 "/> <polygon fill="black" fill-rule="nonzero" points="4110.86,21000 25110.85,0 25210.61,0 4210.62,21000 "/> <polygon fill="black" fill-rule="nonzero" points="5253.16,21000 26253.16,0 26352.92,0 5352.92,21000 "/> <polygon fill="black" fill-rule="nonzero" points="6395.47,21000 27395.46,0 27495.22,0 6495.23,21000 "/> <polygon fill="black" fill-rule="nonzero" points="7537.77,21000 28537.78,0 28637.54,0 7637.53,21000 "/> <polygon fill="black" fill-rule="nonzero" points="8680.08,21000 29680.09,0 29700,0 29700,79.85 8779.84,21000 "/> <polygon fill="black" fill-rule="nonzero" points="9822.4,21000 29700,1122.39 29700,1222.15 9922.16,21000 "/> <polygon fill="black" fill-rule="nonzero" points="10964.7,21000 29700,2264.7 29700,2364.46 11064.46,21000 "/> <polygon fill="black" fill-rule="nonzero" points="12107.01,21000 29700,3407 29700,3506.76 12206.77,21000 "/> <polygon fill="black" fill-rule="nonzero" points="13249.32,21000 29700,4549.32 29700,4649.08 13349.08,21000 "/> <polygon fill="black" fill-rule="nonzero" points="14391.62,21000 29700,5691.62 29700,5791.38 14491.38,21000 "/> <polygon fill="black" fill-rule="nonzero" points="15533.93,21000 29700,6833.93 29700,6933.69 15633.69,21000 "/> <polygon fill="black" fill-rule="nonzero" points="16676.24,21000 29700,7976.24 29700,8076 16776,21000 "/> <polygon fill="black" fill-rule="nonzero" points="17818.55,21000 29700,9118.55 29700,9218.31 17918.31,21000 "/> <polygon fill="black" fill-rule="nonzero" points="18960.86,21000 29700,10260.86 29700,10360.62 19060.62,21000 "/> <polygon fill="black" fill-rule="nonzero" points="20103.16,21000 29700,11403.16 29700,11502.92 20202.92,21000 "/> <polygon fill="black" fill-rule="nonzero" points="21245.47,21000 29700,12545.47 29700,12645.23 21345.23,21000 "/> <polygon fill="black" fill-rule="nonzero" points="22387.78,21000 29700,13687.78 29700,13787.54 22487.54,21000 "/> <polygon fill="black" fill-rule="nonzero" points="23530.09,21000 29700,14830.09 29700,14929.85 23629.85,21000 "/> <polygon fill="black" fill-rule="nonzero" points="24672.4,21000 29700,15972.4 29700,16072.16 24772.16,21000 "/> <polygon fill="black" fill-rule="nonzero" points="25814.7,21000 29700,17114.7 29700,17214.46 25914.46,21000 "/> <polygon fill="black" fill-rule="nonzero" points="26957.01,21000 29700,18257.01 29700,18356.77 27056.77,21000 "/> <polygon fill="black" fill-rule="nonzero" points="28099.31,21000 29700,19399.31 29700,19499.07 28199.07,21000 "/> <polygon fill="black" fill-rule="nonzero" points="29241.63,21000 29700,20541.63 29700,20641.39 29341.39,21000 "/> <polygon fill="black" fill-rule="nonzero" points="-0,530.08 530.08,0 629.84,0 -0,629.84 "/> <polygon fill="black" fill-rule="nonzero" points="-0,1672.39 1672.39,0 1772.15,0 -0,1772.15 "/> <polygon fill="black" fill-rule="nonzero" points="-0,2814.69 2814.69,0 2914.45,0 -0,2914.45 "/> <polygon fill="black" fill-rule="nonzero" points="-0,3957.01 3957.01,0 4056.77,0 -0,4056.77 "/> <polygon fill="black" fill-rule="nonzero" points="-0,5099.31 5099.31,0 5199.07,0 -0,5199.07 "/> <polygon fill="black" fill-rule="nonzero" points="-0,6241.62 6241.62,0 6341.38,0 -0,6341.38 "/> <polygon fill="black" fill-rule="nonzero" points="-0,7383.93 7383.93,0 7483.69,0 -0,7483.69 "/> <polygon fill="black" fill-rule="nonzero" points="-0,8526.23 8526.23,0 8625.99,0 -0,8625.99 "/> <polygon fill="black" fill-rule="nonzero" points="-0,9668.55 9668.55,0 9768.31,0 -0,9768.31 "/> <polygon fill="black" fill-rule="nonzero" points="-0,10810.85 10810.85,0 10910.61,0 -0,10910.61 "/> <polygon fill="black" fill-rule="nonzero" points="-0,11953.16 11953.16,0 12052.92,0 -0,12052.92 "/> <polygon fill="black" fill-rule="nonzero" points="-0,13095.47 13095.47,0 13195.23,0 -0,13195.23 "/> <polygon fill="black" fill-rule="nonzero" points="-0,14237.77 14237.77,0 14337.53,0 -0,14337.53 "/> <polygon fill="black" fill-rule="nonzero" points="-0,15380.08 15380.08,0 15479.84,0 -0,15479.84 "/> <polygon fill="black" fill-rule="nonzero" points="-0,16522.39 16522.39,0 16622.15,0 -0,16622.15 "/> <polygon fill="black" fill-rule="nonzero" points="-0,17664.7 17664.7,0 17764.46,0 -0,17764.46 "/> <polygon fill="black" fill-rule="nonzero" points="-0,18807.01 18807.01,0 18906.77,0 -0,18906.77 "/> <polygon fill="black" fill-rule="nonzero" points="-0,19949.31 19949.31,0 20049.07,0 -0,20049.07 "/> <polygon fill="black" fill-rule="nonzero" points="91.62,21000 21091.62,0 21191.38,0 191.38,21000 "/> <polygon fill="black" fill-rule="nonzero" points="1233.93,21000 22233.93,0 22333.69,0 1333.69,21000 "/> <polygon fill="black" fill-rule="nonzero" points="2376.23,21000 23376.24,0 23476,0 2475.99,21000 "/> <polygon fill="black" fill-rule="nonzero" points="3518.54,21000 24518.55,0 24618.31,0 3618.3,21000 "/> <polygon fill="black" fill-rule="nonzero" points="4660.86,21000 25660.85,0 25760.61,0 4760.62,21000 "/> <polygon fill="black" fill-rule="nonzero" points="5803.16,21000 26803.16,0 26902.92,0 5902.92,21000 "/> <polygon fill="black" fill-rule="nonzero" points="6945.47,21000 27945.46,0 28045.22,0 7045.23,21000 "/> <polygon fill="black" fill-rule="nonzero" points="8087.77,21000 29087.78,0 29187.54,0 8187.53,21000 "/> <polygon fill="black" fill-rule="nonzero" points="9230.08,21000 29700,530.09 29700,629.85 9329.84,21000 "/> <polygon fill="black" fill-rule="nonzero" points="10372.4,21000 29700,1672.39 29700,1772.15 10472.16,21000 "/> <polygon fill="black" fill-rule="nonzero" points="11514.7,21000 29700,2814.7 29700,2914.46 11614.46,21000 "/> <polygon fill="black" fill-rule="nonzero" points="12657.01,21000 29700,3957 29700,4056.77 12756.77,21000 "/> <polygon fill="black" fill-rule="nonzero" points="13799.32,21000 29700,5099.32 29700,5199.08 13899.08,21000 "/> <polygon fill="black" fill-rule="nonzero" points="14941.62,21000 29700,6241.62 29700,6341.38 15041.38,21000 "/> <polygon fill="black" fill-rule="nonzero" points="16083.93,21000 29700,7383.93 29700,7483.69 16183.69,21000 "/> <polygon fill="black" fill-rule="nonzero" points="17226.24,21000 29700,8526.24 29700,8626 17326,21000 "/> <polygon fill="black" fill-rule="nonzero" points="18368.55,21000 29700,9668.55 29700,9768.31 18468.31,21000 "/> <polygon fill="black" fill-rule="nonzero" points="19510.86,21000 29700,10810.86 29700,10910.62 19610.62,21000 "/> <polygon fill="black" fill-rule="nonzero" points="20653.16,21000 29700,11953.16 29700,12052.92 20752.92,21000 "/> <polygon fill="black" fill-rule="nonzero" points="21795.47,21000 29700,13095.47 29700,13195.23 21895.23,21000 "/> <polygon fill="black" fill-rule="nonzero" points="22937.78,21000 29700,14237.78 29700,14337.54 23037.54,21000 "/> <polygon fill="black" fill-rule="nonzero" points="24080.09,21000 29700,15380.09 29700,15479.85 24179.85,21000 "/> <polygon fill="black" fill-rule="nonzero" points="25222.4,21000 29700,16522.4 29700,16622.16 25322.16,21000 "/> <polygon fill="black" fill-rule="nonzero" points="26364.7,21000 29700,17664.7 29700,17764.46 26464.46,21000 "/> <polygon fill="black" fill-rule="nonzero" points="27507.01,21000 29700,18807.01 29700,18906.77 27606.77,21000 "/> <polygon fill="black" fill-rule="nonzero" points="28649.31,21000 29700,19949.31 29700,20049.07 28749.07,21000 "/> </g> </svg>